<?xml version="1.0" standalone="no"?><!DOCTYPE svg PUBLIC "-//W3C//DTD SVG 1.1//EN" "http://www.w3.org/Graphics/SVG/1.1/DTD/svg11.dtd"><svg t="1707179427811" class="icon" viewBox="0 0 1522 1024" version="1.1" xmlns="http://www.w3.org/2000/svg" p-id="32387" xmlns:xlink="http://www.w3.org/1999/xlink" width="297.265625" height="200"><path d="M1109.693366 131.335686h-697.245435a447.758341 447.758341 0 0 0 0 892.664314 396.605881 396.605881 0 0 0 297.533643-137.484123h102.178149a396.479109 396.479109 0 0 0 297.470257 137.484123 447.758341 447.758341 0 0 0 0-892.664314z" fill="#CCD1D9" p-id="32388"></path><path d="M847.148766 274.651315a34.355184 34.355184 0 0 1-34.355184 34.355185h-103.002166a34.355184 34.355184 0 0 1-34.291799-34.355185V34.291798A34.291798 34.291798 0 0 1 709.791416 0h103.002166a34.291798 34.291798 0 0 1 34.355184 34.291798z" fill="#656D78" p-id="32389"></path><path d="M1109.693366 62.625317h-697.245435a447.758341 447.758341 0 0 0 0 892.727701 396.732652 396.732652 0 0 0 297.533643-137.484123h102.178149a396.669266 396.669266 0 0 0 297.470257 137.484123 447.758341 447.758341 0 0 0 0-892.727701z" fill="#E6E9ED" p-id="32390"></path><path d="M1107.031156 457.646549a68.646982 68.646982 0 1 1 68.710368-68.710368 68.773754 68.773754 0 0 1-68.710368 68.710368z" fill="#FFCE54" p-id="32391"></path><path d="M1105.509893 285.363541a103.002167 103.002167 0 1 0 103.002166 103.002166 103.002167 103.002167 0 0 0-103.002166-103.002166z m0 137.35735a34.355184 34.355184 0 1 1 34.291798-34.355184 34.355184 34.355184 0 0 1-34.291798 34.355184z" fill="#F6BB42" p-id="32392"></path><path d="M1247.114102 614.907088a68.646982 68.646982 0 1 1 68.583597-68.646983 68.773754 68.773754 0 0 1-68.583597 68.646983z" fill="#ED5564" p-id="32393"></path><path d="M1247.114102 441.99022a103.002167 103.002167 0 1 0 103.002167 103.002166 102.938781 102.938781 0 0 0-103.002167-103.002166z m0 137.293964a34.355184 34.355184 0 1 1 34.291798-34.291798 34.41857 34.41857 0 0 1-34.291798 34.291798z" fill="#DA4453" p-id="32394"></path><path d="M949.960775 614.907088a68.646982 68.646982 0 1 1 68.710368-68.646983 68.710368 68.710368 0 0 1-68.710368 68.646983z" fill="#A0D468" p-id="32395"></path><path d="M948.883214 441.99022a103.002167 103.002167 0 1 0 103.002166 103.002166 103.002167 103.002167 0 0 0-103.002166-103.002166z m0 137.293964a34.355184 34.355184 0 1 1 34.41857-34.291798 34.355184 34.355184 0 0 1-34.41857 34.291798z" fill="#8CC153" p-id="32396"></path><path d="M1107.031156 772.167626a68.646982 68.646982 0 1 1 68.710368-68.646982 68.773754 68.773754 0 0 1-68.710368 68.646982z" fill="#5D9CEC" p-id="32397"></path><path d="M1105.509893 577.509378a103.002167 103.002167 0 1 0 103.002166 103.002166 103.002167 103.002167 0 0 0-103.002166-103.002166z m0 137.357351a34.355184 34.355184 0 1 1 34.291798-34.355185 34.41857 34.41857 0 0 1-34.291798 34.355185z" fill="#4A89DC" p-id="32398"></path><path d="M583.970308 477.549737H309.382378a68.710368 68.710368 0 0 0 0 137.357351h274.714702a68.710368 68.710368 0 1 0 0-137.357351z" fill="#434A54" p-id="32399"></path><path d="M483.630351 677.785949V403.134633a68.646982 68.646982 0 1 0-137.293965 0v274.651316a68.646982 68.646982 0 1 0 137.293965 0z" fill="#656D78" p-id="32400"></path></svg>